# xmcd CD database file
#
# Track frame offsets:
#	150
#	21403
#	46883
#	59395
#	97774
#	129553
#	161877
#	182623
#	203966
#	222398
#	238164
#	256612
#
# Disc length: 3712 seconds
#
# Revision: 0
# Processed by: cddbd v1.5.1PL0 Copyright (c) Steve Scherf et al.
# Submitted via: CDex 1.51
#
DISCID=a70e7e0c
DTITLE=Various Artist - Goin' Home - A Tribute To Duke Ellington
DYEAR=2001
DGENRE=Jazz
TTITLE0=All The Way Cool - The Groovepushers
TTITLE1=Going Home - Jon Hendricks, Al Jarreau, Take 6, Gregory Hines
TTITLE2=I Ain't Got Nothing But the Blues - Otis Clay and Delya Chandler
TTITLE3=Ellington Medley - Jonathan Butler, Dianne Reeves, Jeffrey Osborne
TTITLE4=The Duke - Rachelle Ferrell, Grady Tate, Christian McBride, Kirk Whalum
TTITLE5=Come Sunday - Otis Clay and Delya Chandler
TTITLE6=Swinging At The Cotton Club - Jerry Butler, The Dells, Grady Tate
TTITLE7=Don't Get Around Much Anymore - Nancy Wilson, Kenny Lattimore
TTITLE8=Smokin' - Sam Most, Snookie Young
TTITLE9=Bring That Duke - Ernie Andrews, Barbara Morrison
TTITLE10=It Don't Mean A Thing - Guru, Tashina Daniels
TTITLE11=All The Way Cool (Instrumental Mix) - The Groovepushers
EXTD=YEAR: 2001
EXTT0=
EXTT1=
EXTT2=
EXTT3=
EXTT4=
EXTT5=
EXTT6=
EXTT7=
EXTT8=
EXTT9=
EXTT10=
EXTT11=
PLAYORDER=
